DataType=double
version=3
OpenSimVersion=4.5.2-2025-04-07-2c9fc5bc9
endheader
time	thorax_tilt	thorax_list	thorax_rotation	thorax_tx	thorax_ty	thorax_tz	neck_flexion	neck_bending	neck_rotation	sternoclavicular_r1	sternoclavicular_r2	sternoclavicular_r3	Acromioclavicular_r1	Acromioclavicular_r2	Acromioclavicular_r3	shoulder_plane	shoulder_ele	shoulder_rotation	elbow_flexion	pro_sup	hand_r_Add	hand_r_Flex	sternoclavicular_left_r1	sternoclavicular_left_r2	sternoclavicular_left_r3	Acromioclavicular_left_r1	Acromioclavicular_left_r2	Acromioclavicular_left_r3	shoulder_left_plane	shoulder_left_ele	shoulder_left_rotation	elbow_left_flexion	pro_sup_left	hand_left_Flex	hand_left_Add
1.617	-3.163532905998268	-0.4811506954989932	0.6791395368379707	0.2864317053982792	-0.1081444483317086	1.011885827433141	0.06652398830872421	-0.04651712597028684	-0.05431778640872368	0.01812612039680515	0.3607384663136389	0.06495011239980956	-2.219421758050897e-18	-2.295987635639415e-18	2.031093752197664e-18	-2.927409190549679	-0.3061730515253971	3.145785114975162	1.201349379737067	1.062386756729375	-0.3953856009068866	-0.0058922751371556	-0.1991433403437458	-0.07414962651182228	0.02985199221231524	1.006339833680525e-18	1.687889086036012e-18	-1.276213925809142e-18	-0.7653142665677821	0.5714208582131449	1.644288570770812	1.513265703004367	-0.485597222098331	-0.3249098596373606	-0.1587038951327518
1.65	-3.162878163948534	-0.4839367747088335	0.6822528975111334	0.2866115844934802	-0.1081007965415941	1.011524361112396	0.07300465019896872	-0.0518130686203766	-0.04440023022295909	0.01836756382670943	0.3578868039904387	0.06598196154748526	-2.26124831712002e-18	-1.24718560629552e-18	3.468682390961997e-18	-2.929594089259611	-0.3059635435475137	3.145845189432734	1.202309553506132	1.071389825975652	-0.390494409108633	-0.008183827969844341	-0.1946196729425943	-0.07323816934250767	0.03001902318872677	1.536641471704019e-18	7.47339643608124e-19	-1.653152498406231e-18	-0.7699590346241757	0.5767124206714487	1.652641378320252	1.514333344526353	-0.48918913240346	-0.3195101533338846	-0.1750401374577373
1.683	-3.162619962958405	-0.4861856845693786	0.6845744869751538	0.2867535324831756	-0.1081924273031162	1.011379718557468	0.07949280179801635	-0.0566535188574847	-0.03386693494790791	0.01791124517688835	0.3562220426125399	0.06715870786700809	1.953343002387218e-18	-2.425233113512372e-18	-3.550087682842259e-18	-2.930954044078416	-0.3057406342510912	3.145814299054954	1.202619636363712	1.080003399618801	-0.3859198297226288	-0.01036798636216132	-0.1901735633024723	-0.07077399971494396	0.03026490115316252	-2.299388135679429e-18	1.597320132888992e-18	-8.522011081899561e-19	-0.7727447265606029	0.5814426936665391	1.659300563128191	1.513999053332703	-0.4888908681850435	-0.3204417984153518	-0.1908294594124878
1.716	-3.162850896699317	-0.4870783721437362	0.6851316263882211	0.2868533962475993	-0.1083955037350458	1.011413052992628	0.08434316548739955	-0.06026251018607594	-0.02654978506707527	0.01662623853856597	0.3551120373382244	0.06840450838507402	1.526716253860551e-18	5.634856912107507e-18	1.310551449455087e-18	-2.931144832667478	-0.3057395337771242	3.145636150371461	1.202103565664346	1.084107033622789	-0.3854154486139112	-0.01139821445559613	-0.1868799903032973	-0.06801879931451156	0.03049125686717218	-3.961541622057895e-18	-6.115747696434516e-18	-3.001797055579416e-18	-0.7726553515402876	0.5850922366377656	1.663639822045228	1.511475049273071	-0.4870470348627313	-0.3255040134805001	-0.2060590525000171
1.749	-3.163338353879254	-0.4866851320876978	0.683971372871133	0.2869460214570273	-0.1086291527172534	1.011513811404034	0.08705847727636114	-0.06259397065346181	-0.02465411829705572	0.01498012996972439	0.3537421376596749	0.06962479491253008	-4.47481763390134e-19	1.518947615660935e-19	1.6851429324715e-18	-2.930808967326549	-0.3060371068338135	3.145289598143231	1.200366421771676	1.081063428673401	-0.3919979144944121	-0.01102332592617493	-0.1850322071305682	-0.06594781463158463	0.03059259344611683	8.19843173707108e-19	3.533095843894205e-18	7.466475301633112e-18	-0.7698851610904435	0.5873973087533588	1.665729548996627	1.507230089968409	-0.4859636620698714	-0.3318770737747613	-0.2198407733929678
1.782	-3.163732348911714	-0.4856029294504755	0.681996804450812	0.2870786126717256	-0.1088419056120016	1.011627255606318	0.08813028290818982	-0.0642137670888832	-0.0277324043651191	0.01344279079703047	0.3520327971559794	0.07073098942796566	1.080595994997645e-18	6.963810175366888e-19	3.289923743422247e-18	-2.930882111470904	-0.3064875749364554	3.144920254193284	1.197216511946068	1.071206254596	-0.4056452705535651	-0.009230897946822495	-0.1841926522857749	-0.06464353996650765	0.03049566390250861	2.162177167847815e-18	5.860979056872993e-18	3.769645812311336e-18	-0.7652980186341806	0.588467369527188	1.66629940522519	1.503166231599415	-0.4873365932341922	-0.3376309322529463	-0.2308585797031187
1.815	-3.163763145999583	-0.4842434247447995	0.6804403042953595	0.2872681990759512	-0.1090414219875996	1.011797197914093	0.08880363616395921	-0.06520557608396084	-0.03416834833169925	0.01225576089825131	0.3506938507975174	0.07165992728283328	2.300071782520254e-18	2.061836712080966e-18	-1.064386225466977e-18	-2.931740985729832	-0.3069778285301094	3.144821766749981	1.192964001496231	1.057779631758913	-0.4231523636167687	-0.005318926064385191	-0.1837406195894697	-0.06362857736878748	0.03017811001190464	-2.961398119331801e-18	4.205089210353569e-18	-7.523063118336964e-19	-0.7598264321299872	0.5887207919066541	1.666463775615673	1.501569535423081	-0.492410380160651	-0.3423528045178853	-0.2378914461478238
1.848	-3.16328065859013	-0.4827268497712757	0.6802744345402646	0.2874884035050618	-0.1092278464692202	1.012067187657525	0.09063443534846666	-0.06492143277286795	-0.04279612333653327	0.01168238772917249	0.350335406178476	0.0724020297995704	-3.931232683063609e-18	-2.61906122248112e-18	-6.475334106195548e-19	-2.933150260282232	-0.3074974655218302	3.14514113626525	1.188772425963171	1.045176535398513	-0.4397545473949763	0.001369362608823262	-0.183473557198353	-0.06264817412835992	0.02967731023308497	-3.408895681528042e-18	-2.975672282921133e-18	-2.730529065461437e-18	-0.7546036852900149	0.588557215492103	1.667039641444525	1.504068731192682	-0.5028206727342216	-0.3461932662948977	-0.2398995397650497
1.881	-3.162260417393052	-0.4812272225920038	0.6816395488204018	0.2876880709403425	-0.1093654243046076	1.012391998116336	0.09433456241276564	-0.06302368328674721	-0.0526700656888677	0.01189837391013144	0.3508114414887049	0.07301078651066176	-2.24819295220934e-18	-2.284662688310944e-18	1.816640972522743e-19	-2.934679219272528	-0.3079291494676791	3.145676292684837	1.186319421437639	1.036482321346089	-0.4513719312223681	0.0100487196249379	-0.1837966029257585	-0.06198379175252032	0.02907465298722554	1.578491678579276e-18	1.926856608660538e-18	1.95443062570809e-18	-0.7508796698598768	0.5882779806957932	1.667728763161705	1.51165867859277	-0.5203179534597145	-0.3486100383870117	-0.2362876893819094
1.914	-3.160896347820125	-0.4801589592081568	0.6838694750283604	0.2878025074920077	-0.1094130620105686	1.012679031887	0.09885726591526632	-0.06028511995720972	-0.06144768088459505	0.01262919684983202	0.3516010595094564	0.07359262315559809	-3.482084254037617e-18	-3.356174844683339e-18	-2.823438014333355e-19	-2.935816458291832	-0.307944285253315	3.146095881056917	1.18666623678803	1.032701664112406	-0.4557169088741889	0.0180468575632004	-0.1851145745880222	-0.06216464427145449	0.02847819369090025	6.649642277594939e-18	-2.303622128761777e-18	2.279496197198797e-19	-0.7491960874257981	0.5884598269334034	1.667017624734689	1.525093693351554	-0.5446056633787406	-0.348131653368952	-0.2275568698657478
1.947	-3.159759339059036	-0.4798207769066608	0.6859182115567842	0.2877690702636442	-0.1093792541264724	1.012888267125652	0.1021596829341011	-0.05808809462615266	-0.06565523004115301	0.01324481323322546	0.3523255034950566	0.07431671581221207	-1.578304999313309e-18	-1.585862390641713e-18	-2.72324659567139e-19	-2.936242713914083	-0.3071224032350087	3.146109584424369	1.1896806006881	1.032890189690987	-0.4523643580746222	0.02184773842609563	-0.1873007344998794	-0.06340466190369748	0.0280358093577219	-9.124121480173907e-18	-2.112644741712639e-18	-2.33617029289334e-18	-0.7489266837550711	0.5899458397284377	1.663029449137097	1.544477700210148	-0.5718110944511766	-0.3438834763956173	-0.2158185739245229
1.98	-3.159671021252001	-0.4797827777495732	0.6868026652316969	0.2875508015974506	-0.1093557073014922	1.013079318819678	0.1028480239833395	-0.05726774305690201	-0.06390025222055115	0.01313541394978518	0.3528312199438013	0.07538471202056693	-1.202221647882256e-19	-2.24894764183843e-19	7.681304404007891e-19	-2.936203573765275	-0.3054681106446386	3.14558733177093	1.194327919637245	1.034551693570667	-0.442618768129629	0.01952176469639126	-0.1901647900876915	-0.06536382460192713	0.02791259497041778	-5.207730906922849e-18	1.018330381820879e-18	6.267576670347674e-18	-0.7489721087231715	0.5930849458892546	1.654422501159434	1.56892502387411	-0.5956553137863997	-0.3378949082391567	-0.2049695858459349
